<?xml version="1.0" encoding="UTF-8" standalone="no"?>
<!-- Created with Inkscape (http://www.inkscape.org/) -->

<svg
   xmlns:dc="http://purl.org/dc/elements/1.1/"
   xmlns:cc="http://creativecommons.org/ns#"
   xmlns:rdf="http://www.w3.org/1999/02/22-rdf-syntax-ns#"
   xmlns:svg="http://www.w3.org/2000/svg"
   xmlns="http://www.w3.org/2000/svg"
   xmlns:sodipodi="http://sodipodi.sourceforge.net/DTD/sodipodi-0.dtd"
   xmlns:inkscape="http://www.inkscape.org/namespaces/inkscape"
   width="99.00219mm"
   height="76.238731mm"
   viewBox="0 0 99.00219 76.238731"
   version="1.1"
   id="svg4532"
   inkscape:version="0.92.1 r15371"
   sodipodi:docname="logo_basic_text_as_path.svg">
  <defs
     id="defs4526" />
  <sodipodi:namedview
     id="base"
     pagecolor="#ffffff"
     bordercolor="#666666"
     borderopacity="1.0"
     inkscape:pageopacity="0.0"
     inkscape:pageshadow="2"
     inkscape:zoom="1.4"
     inkscape:cx="23.010039"
     inkscape:cy="55.195712"
     inkscape:document-units="mm"
     inkscape:current-layer="layer1"
     showgrid="false"
     inkscape:window-width="1920"
     inkscape:window-height="1027"
     inkscape:window-x="-8"
     inkscape:window-y="-8"
     inkscape:window-maximized="1" />
  <metadata
     id="metadata4529">
    <rdf:RDF>
      <cc:Work
         rdf:about="">
        <dc:format>image/svg+xml</dc:format>
        <dc:type
           rdf:resource="http://purl.org/dc/dcmitype/StillImage" />
        <dc:title></dc:title>
      </cc:Work>
    </rdf:RDF>
  </metadata>
  <style>
  #house-outline-path {
    stroke-dasharray: 263;
    stroke-dashoffset: 263;
    animation: drawLine 800ms ease-in-out forwards;
  }

  #house-windows,
  #text-h1,
  #text-h2 {
      opacity: 0;
      animation: fadeIn 1200ms ease-out forwards;
  }

  @keyframes drawLine {
      from {
        stroke-dashoffset: 263;
      } to {
        stroke-dashoffset: 0;
      }
  }

  @keyframes fadeIn {
      from {
          opacity: 0;
      } to {
          opacity: 1;
      }
  }
  </style>
  <g
     inkscape:label="Layer 1"
     inkscape:groupmode="layer"
     id="layer1"
     transform="translate(215.81062,-34.362776)">
    <g
       id="house-outline"
       transform="translate(-232.37346,24.007974)"
       style="stroke:#fe0000;stroke-opacity:1">
      <path
         inkscape:connector-curvature="0"
         id="house-outline-path"
         d="M 96.342798,48.81373 79.972537,32.443473 V 20.616795 h -6.882188 v 7.884451 L 55.651013,11.061909 17.966009,48.746912 23.979573,42.733349 v 30.134639 h -7.416729 88.466216"
         style="fill:none;stroke:#fe0000;stroke-width:1;stroke-linecap:butt;stroke-linejoin:miter;stroke-miterlimit:4;stroke-opacity:1" />
      <g
         id="house-windows"
         style="stroke:#fe0000;stroke-opacity:1">
        <rect
           style="fill:none;fill-opacity:1;fill-rule:nonzero;stroke:#fe0000;stroke-width:1;stroke-linecap:round;stroke-linejoin:miter;stroke-miterlimit:10;stroke-dasharray:none;stroke-dashoffset:0;stroke-opacity:1"
           id="rect5088"
           width="9.4880686"
           height="8.2853556"
           x="45.027046"
           y="33.312096" />
        <rect
           style="fill:none;fill-opacity:1;fill-rule:nonzero;stroke:#fe0000;stroke-width:1;stroke-linecap:square;stroke-linejoin:miter;stroke-miterlimit:10;stroke-dasharray:none;stroke-dashoffset:0;stroke-opacity:1"
           id="rect5088-1"
           width="9.4880686"
           height="8.2853556"
           x="56.631752"
           y="33.312099" />
        <rect
           style="fill:none;fill-opacity:1;fill-rule:nonzero;stroke:#fe0000;stroke-width:1;stroke-linecap:square;stroke-linejoin:miter;stroke-miterlimit:10;stroke-dasharray:none;stroke-dashoffset:0;stroke-opacity:1"
           id="rect5088-4"
           width="9.4880686"
           height="8.2853556"
           x="45.027046"
           y="43.366272" />
        <rect
           style="fill:none;fill-opacity:1;fill-rule:nonzero;stroke:#fe0000;stroke-width:1;stroke-linecap:square;stroke-linejoin:miter;stroke-miterlimit:10;stroke-dasharray:none;stroke-dashoffset:0;stroke-opacity:1"
           id="rect5088-1-8"
           width="9.4880686"
           height="8.2853556"
           x="56.631752"
           y="43.366276" />
      </g>
    </g>
    <g
       aria-label="Fresh Decorators Ltd"
       style="font-style:normal;font-variant:normal;font-weight:normal;font-stretch:normal;font-size:22.57777786px;line-height:1.25;font-family:Cinzel;-inkscape-font-specification:Cinzel;letter-spacing:0px;word-spacing:0px;fill:#000000;fill-opacity:1;stroke:none;stroke-width:0.26458332"
       id="text-h1">
      <path
         d="m -202.92123,88.593962 v 0.651934 h -0.0776 v -0.116417 q 0,-0.155222 -0.10865,-0.263878 -0.10866,-0.116416 -0.27164,-0.116416 h -1.6376 v 2.398183 h 1.31163 q 0.15522,-0.0078 0.26388,-0.116417 0.10865,-0.108655 0.10865,-0.263877 v -0.116417 h 0.0776 v 1.226256 h -0.0776 v -0.116417 q 0,-0.155222 -0.10865,-0.263878 -0.1009,-0.108656 -0.25612,-0.116417 h -1.31939 v 1.994606 q 0,0.201789 0.14746,0.34925 0.14746,0.1397 0.34925,0.1397 h 0.1009 v 0.07761 h -1.69969 v -0.07761 h 0.1009 q 0.20179,0 0.34149,-0.1397 0.14746,-0.147461 0.15522,-0.34925 v -4.346222 q 0,-0.186267 -0.15522,-0.310445 -0.14746,-0.131939 -0.34149,-0.131939 h -0.0931 l -0.008,-0.07761 h 2.27401 q 0.24059,0 0.51999,-0.04657 0.28717,-0.04657 0.40358,-0.09313 z"
         style="font-style:normal;font-variant:normal;font-weight:normal;font-stretch:normal;font-size:7.76111126px;font-family:Cinzel;-inkscape-font-specification:Cinzel;stroke-width:0.26458332"
         id="path5665" />
      <path
         d="m -200.81057,89.525296 h -0.41134 v 3.919361 q 0.008,0.240594 0.21731,0.364772 0.1009,0.05433 0.22507,0.05433 h 0.1009 l 0.008,0.07761 h -1.59103 v -0.07761 h 0.10866 q 0.1785,0 0.30268,-0.116417 0.13194,-0.124177 0.13194,-0.294922 V 89.76589 q 0,-0.170744 -0.13194,-0.287161 -0.12418,-0.116417 -0.30268,-0.116417 h -0.10866 v -0.07761 h 1.94804 q 0.72955,0 1.14865,0.333728 0.42686,0.333728 0.42686,0.877006 0,0.543277 -0.34149,0.90805 -0.34149,0.364772 -0.86925,0.4191 0.24836,0.108655 0.59761,0.605366 -0.008,0 0.26388,0.341489 0.2794,0.341489 0.44238,0.535517 0.17074,0.186267 0.2794,0.287161 0.28716,0.271639 0.65969,0.271639 v 0.07761 h -0.24059 q -0.61313,0 -0.96238,-0.240594 -0.26388,-0.178506 -0.48119,-0.442384 -0.0466,-0.06209 -0.39581,-0.543277 -0.34149,-0.48895 -0.36478,-0.519995 -0.4191,-0.519994 -0.78387,-0.519994 v -0.07761 q 0.90805,0 1.09432,-0.09313 0.25612,-0.131939 0.34925,-0.2794 0.19403,-0.310444 0.19403,-0.682978 0,-0.473427 -0.2794,-0.729544 -0.2794,-0.256117 -0.75283,-0.2794 -0.20955,-0.0078 -0.48119,-0.0078 z"
         style="font-style:normal;font-variant:normal;font-weight:normal;font-stretch:normal;font-size:7.76111126px;font-family:Cinzel;-inkscape-font-specification:Cinzel;stroke-width:0.26458332"
         id="path5667" />
      <path
         d="m -197.28739,93.863757 q 0.18627,0 0.31045,-0.116417 0.13193,-0.124177 0.1397,-0.294922 V 89.76589 q 0,-0.170744 -0.13194,-0.287161 -0.13194,-0.116417 -0.31821,-0.116417 h -0.10865 v -0.07761 h 2.26624 q 0.31821,0 0.5588,-0.04657 0.24059,-0.04657 0.31044,-0.07761 v 0.884766 l -0.0854,-0.0078 v -0.116417 q 0,-0.162983 -0.10865,-0.2794 -0.10866,-0.116416 -0.2794,-0.116416 h -1.61431 v 1.971322 h 1.32715 q 0.15522,0 0.23283,-0.09313 0.0854,-0.09313 0.0854,-0.232834 v -0.100894 h 0.0854 v 1.086556 h -0.0854 v -0.100895 q 0,-0.217311 -0.16298,-0.294922 -0.0621,-0.02328 -0.13194,-0.03105 h -1.35043 v 1.971323 h 1.21849 q 0.35701,0 0.59761,-0.124178 0.24835,-0.124178 0.37253,-0.294922 0.13194,-0.170745 0.26388,-0.450145 h 0.0776 l -0.42686,1.109839 h -3.15101 v -0.07761 z"
         style="font-style:normal;font-variant:normal;font-weight:normal;font-stretch:normal;font-size:7.76111126px;font-family:Cinzel;-inkscape-font-specification:Cinzel;stroke-width:0.26458332"
         id="path5669" />
      <path
         d="m -193.1284,93.685251 q -0.0233,-0.09313 -0.0233,-0.380294 0,-0.287161 0.1009,-0.582083 h 0.0931 q -0.008,0.06985 -0.008,0.1397 0,0.4191 0.27164,0.690739 0.2794,0.263877 0.76835,0.263877 0.51223,0 0.79939,-0.232833 0.28716,-0.240594 0.28716,-0.613128 0,-0.380294 -0.2794,-0.62865 l -1.55222,-1.195211 q -0.37253,-0.318206 -0.37253,-0.853722 0,-0.302684 0.16298,-0.5588 0.17075,-0.256117 0.46567,-0.403578 0.30268,-0.155222 0.70626,-0.155222 0.40358,0 0.71402,0.06985 h 0.25612 l 0.0155,0.845961 h -0.0854 q 0,-0.325967 -0.22507,-0.504472 -0.22508,-0.178506 -0.64418,-0.178506 -0.4191,0 -0.69074,0.217311 -0.27163,0.20955 -0.27163,0.551039 0,0.333728 0.30268,0.582083 l 1.56774,1.210734 q 0.35701,0.294922 0.35701,0.822678 0,0.527755 -0.40357,0.892527 -0.39582,0.364773 -0.97014,0.364773 -0.3803,0 -0.76059,-0.09313 -0.3803,-0.09313 -0.58208,-0.271639 z"
         style="font-style:normal;font-variant:normal;font-weight:normal;font-stretch:normal;font-size:7.76111126px;font-family:Cinzel;-inkscape-font-specification:Cinzel;stroke-width:0.26458332"
         id="path5671" />
      <path
         d="m -186.10545,93.863757 q 0.17851,0 0.31045,-0.116417 0.13194,-0.124177 0.1397,-0.294922 v -1.691922 h -2.86385 v 1.691922 q 0.008,0.170745 0.1397,0.294922 0.13194,0.116417 0.31044,0.116417 h 0.0931 v 0.07761 h -1.58327 v -0.07761 h 0.0931 q 0.18627,0 0.31045,-0.124178 0.13194,-0.124178 0.1397,-0.294922 v -3.663245 q -0.008,-0.170744 -0.1397,-0.294922 -0.13194,-0.124178 -0.31045,-0.124178 h -0.0931 v -0.07761 h 1.58327 v 0.07761 h -0.0931 q -0.1785,0 -0.31044,0.124178 -0.13194,0.116417 -0.1397,0.287161 v 1.754012 h 2.86385 v -1.746251 q 0,-0.170744 -0.1009,-0.263877 -0.16298,-0.155223 -0.34925,-0.155223 h -0.0931 v -0.07761 h 1.58327 v 0.07761 h -0.0931 q -0.1785,0 -0.31044,0.116417 -0.13194,0.116417 -0.1397,0.287161 v 3.686528 q 0.008,0.170745 0.10089,0.256117 0.17075,0.155222 0.34925,0.155222 h 0.0931 v 0.07761 h -1.58327 v -0.07761 z"
         style="font-style:normal;font-variant:normal;font-weight:normal;font-stretch:normal;font-size:7.76111126px;font-family:Cinzel;-inkscape-font-specification:Cinzel;stroke-width:0.26458332"
         id="path5673" />
      <path
         d="m -179.15853,88.50859 q 1.24178,0 2.01013,0.752828 0.77611,0.745067 0.77611,1.963561 0,1.218495 -0.77611,1.971322 -0.76835,0.745067 -2.01013,0.745067 h -2.63101 v -0.07761 h 0.10089 q 0.20179,0 0.34149,-0.1397 0.14746,-0.147461 0.15522,-0.34925 v -4.346222 q 0,-0.186267 -0.15522,-0.310445 -0.14746,-0.131939 -0.34149,-0.131939 h -0.0931 l -0.008,-0.07761 z m -1.52893,0.232834 v 4.967111 h 1.52893 q 0.65194,0 1.14865,-0.310445 0.50447,-0.310444 0.77611,-0.869244 0.2794,-0.566561 0.2794,-1.303867 0,-1.1176 -0.61313,-1.800578 -0.60536,-0.682977 -1.59103,-0.682977 z"
         style="font-style:normal;font-variant:normal;font-weight:normal;font-stretch:normal;font-size:7.76111126px;font-family:Cinzel;-inkscape-font-specification:Cinzel;stroke-width:0.26458332"
         id="path5675" />
      <path
         d="m -175.61085,93.863757 q 0.18627,0 0.31045,-0.116417 0.13194,-0.124177 0.1397,-0.294922 V 89.76589 q 0,-0.170744 -0.13194,-0.287161 -0.13194,-0.116417 -0.31821,-0.116417 h -0.10865 v -0.07761 h 2.26624 q 0.31821,0 0.5588,-0.04657 0.2406,-0.04657 0.31045,-0.07761 v 0.884766 l -0.0854,-0.0078 v -0.116417 q 0,-0.162983 -0.10865,-0.2794 -0.10866,-0.116416 -0.2794,-0.116416 h -1.61431 v 1.971322 h 1.32715 q 0.15522,0 0.23283,-0.09313 0.0854,-0.09313 0.0854,-0.232834 v -0.100894 h 0.0854 v 1.086556 h -0.0854 v -0.100895 q 0,-0.217311 -0.16298,-0.294922 -0.0621,-0.02328 -0.13194,-0.03105 h -1.35043 v 1.971323 h 1.21849 q 0.35701,0 0.59761,-0.124178 0.24835,-0.124178 0.37253,-0.294922 0.13194,-0.170745 0.26388,-0.450145 h 0.0776 l -0.42686,1.109839 h -3.15101 v -0.07761 z"
         style="font-style:normal;font-variant:normal;font-weight:normal;font-stretch:normal;font-size:7.76111126px;font-family:Cinzel;-inkscape-font-specification:Cinzel;stroke-width:0.26458332"
         id="path5677" />
      <path
         d="m -168.95279,94.050024 q -1.18745,-0.0078 -1.87818,-0.659695 -0.68298,-0.651933 -0.68298,-1.777294 0,-1.133123 0.68298,-1.785056 0.69073,-0.651933 1.87818,-0.651933 0.48119,0 0.97014,0.124178 0.48895,0.124177 0.84596,0.341488 l 0.17075,1.102078 h -0.0699 q -0.33373,-1.334911 -1.92476,-1.334911 -0.92357,0 -1.45909,0.589845 -0.53551,0.589844 -0.53551,1.614311 0,0.667455 0.24059,1.164166 0.2406,0.48895 0.6985,0.760589 0.45791,0.271639 1.06327,0.271639 0.60537,0 1.05552,-0.178505 0.4579,-0.186267 0.75282,-0.605367 0.30269,-0.4191 0.34149,-1.039989 h 0.0699 l -0.0854,1.063272 q -0.30268,0.465667 -0.87701,0.737306 -0.57432,0.263878 -1.2573,0.263878 z"
         style="font-style:normal;font-variant:normal;font-weight:normal;font-stretch:normal;font-size:7.76111126px;font-family:Cinzel;-inkscape-font-specification:Cinzel;stroke-width:0.26458332"
         id="path5679" />
      <path
         d="m -164.58631,89.48649 q 0.59761,-0.310444 1.31163,-0.310444 0.72178,0 1.31939,0.310444 0.5976,0.302684 0.94685,0.861484 0.35701,0.5588 0.35701,1.265061 0,0.706261 -0.35701,1.265061 -0.34925,0.5588 -0.94685,0.869244 -0.59761,0.302684 -1.22626,0.302684 -0.62865,0 -1.10984,-0.178506 -0.48119,-0.178505 -0.8382,-0.496711 -0.34925,-0.318206 -0.5588,-0.776111 -0.20179,-0.457906 -0.20179,-1.071033 0,-0.620889 0.34925,-1.179689 0.35701,-0.5588 0.95462,-0.861484 z m -0.14746,3.717573 q 0.58984,0.613127 1.45909,0.613127 0.86924,0 1.45909,-0.613127 0.58984,-0.620889 0.58984,-1.591028 0,-0.970139 -0.58984,-1.583267 -0.58985,-0.620889 -1.45909,-0.620889 -0.86925,0 -1.45909,0.620889 -0.58208,0.613128 -0.58208,1.583267 0,0.970139 0.58208,1.591028 z"
         style="font-style:normal;font-variant:normal;font-weight:normal;font-stretch:normal;font-size:7.76111126px;font-family:Cinzel;-inkscape-font-specification:Cinzel;stroke-width:0.26458332"
         id="path5681" />
      <path
         d="m -158.51858,89.525296 h -0.41134 v 3.919361 q 0.008,0.240594 0.21731,0.364772 0.1009,0.05433 0.22508,0.05433 h 0.10089 l 0.008,0.07761 h -1.59103 v -0.07761 h 0.10866 q 0.17851,0 0.30268,-0.116417 0.13194,-0.124177 0.13194,-0.294922 V 89.76589 q 0,-0.170744 -0.13194,-0.287161 -0.12417,-0.116417 -0.30268,-0.116417 h -0.10866 v -0.07761 h 1.94804 q 0.72955,0 1.14865,0.333728 0.42686,0.333728 0.42686,0.877006 0,0.543277 -0.34149,0.90805 -0.34149,0.364772 -0.86924,0.4191 0.24835,0.108655 0.5976,0.605366 -0.008,0 0.26388,0.341489 0.2794,0.341489 0.44238,0.535517 0.17075,0.186267 0.2794,0.287161 0.28716,0.271639 0.6597,0.271639 v 0.07761 h -0.2406 q -0.61313,0 -0.96238,-0.240594 -0.26387,-0.178506 -0.48118,-0.442384 -0.0466,-0.06209 -0.39582,-0.543277 -0.34149,-0.48895 -0.36477,-0.519995 -0.4191,-0.519994 -0.78388,-0.519994 v -0.07761 q 0.90805,0 1.09432,-0.09313 0.25612,-0.131939 0.34925,-0.2794 0.19403,-0.310444 0.19403,-0.682978 0,-0.473427 -0.2794,-0.729544 -0.2794,-0.256117 -0.75283,-0.2794 -0.20955,-0.0078 -0.48119,-0.0078 z"
         style="font-style:normal;font-variant:normal;font-weight:normal;font-stretch:normal;font-size:7.76111126px;font-family:Cinzel;-inkscape-font-specification:Cinzel;stroke-width:0.26458332"
         id="path5683" />
      <path
         d="m -150.40858,93.863757 h 0.0621 v 0.07761 h -1.59103 v -0.07761 h 0.0621 q 0.14746,0 0.22507,-0.100894 0.0776,-0.100895 0.0776,-0.186267 0,-0.09313 -0.031,-0.178506 l -0.42686,-1.032227 h -1.96356 l -0.42687,1.008944 q -0.0388,0.100894 -0.0388,0.194028 0,0.08537 0.0776,0.194028 0.0776,0.100894 0.23283,0.100894 h 0.0621 v 0.07761 h -1.48237 v -0.07761 h 0.0621 q 0.16298,0 0.32597,-0.108656 0.17074,-0.116416 0.2794,-0.341488 1.69968,-3.632201 1.76953,-3.802945 0.13194,-0.325967 0.1397,-0.434622 h 0.0699 l 1.91699,4.237567 q 0.22508,0.450144 0.59761,0.450144 z m -3.48474,-1.730728 h 1.76953 l -0.86924,-2.126544 z"
         style="font-style:normal;font-variant:normal;font-weight:normal;font-stretch:normal;font-size:7.76111126px;font-family:Cinzel;-inkscape-font-specification:Cinzel;stroke-width:0.26458332"
         id="path5685" />
      <path
         d="m -148.43883,89.509774 v 3.942644 q 0.008,0.240595 0.23283,0.357011 0.10089,0.05433 0.22507,0.05433 h 0.0854 v 0.07761 h -1.59879 v -0.07761 h 0.0931 q 0.18626,0 0.3182,-0.124178 0.13194,-0.124178 0.1397,-0.294922 v -3.934883 h -1.40476 q -0.1785,0 -0.28716,0.116416 -0.10089,0.116417 -0.10089,0.2794 v 0.124178 h -0.0854 v -0.877006 q 0.15523,0.06209 0.43463,0.09313 0.28716,0.03104 0.42686,0.03104 h 2.53012 q 0.5588,0 0.86924,-0.124178 v 0.877006 h -0.0854 V 89.90559 q 0,-0.162983 -0.10865,-0.2794 -0.10866,-0.116416 -0.2794,-0.116416 z"
         style="font-style:normal;font-variant:normal;font-weight:normal;font-stretch:normal;font-size:7.76111126px;font-family:Cinzel;-inkscape-font-specification:Cinzel;stroke-width:0.26458332"
         id="path5687" />
      <path
         d="m -144.98647,89.48649 q 0.5976,-0.310444 1.31163,-0.310444 0.72178,0 1.31938,0.310444 0.59761,0.302684 0.94686,0.861484 0.35701,0.5588 0.35701,1.265061 0,0.706261 -0.35701,1.265061 -0.34925,0.5588 -0.94686,0.869244 -0.5976,0.302684 -1.22625,0.302684 -0.62865,0 -1.10984,-0.178506 -0.48119,-0.178505 -0.8382,-0.496711 -0.34925,-0.318206 -0.5588,-0.776111 -0.20179,-0.457906 -0.20179,-1.071033 0,-0.620889 0.34925,-1.179689 0.35701,-0.5588 0.95462,-0.861484 z m -0.14746,3.717573 q 0.58984,0.613127 1.45909,0.613127 0.86924,0 1.45908,-0.613127 0.58985,-0.620889 0.58985,-1.591028 0,-0.970139 -0.58985,-1.583267 -0.58984,-0.620889 -1.45908,-0.620889 -0.86925,0 -1.45909,0.620889 -0.58209,0.613128 -0.58209,1.583267 0,0.970139 0.58209,1.591028 z"
         style="font-style:normal;font-variant:normal;font-weight:normal;font-stretch:normal;font-size:7.76111126px;font-family:Cinzel;-inkscape-font-specification:Cinzel;stroke-width:0.26458332"
         id="path5689" />
      <path
         d="m -138.91874,89.525296 h -0.41134 v 3.919361 q 0.008,0.240594 0.21731,0.364772 0.1009,0.05433 0.22507,0.05433 h 0.1009 l 0.008,0.07761 h -1.59103 v -0.07761 h 0.10866 q 0.1785,0 0.30268,-0.116417 0.13194,-0.124177 0.13194,-0.294922 V 89.76589 q 0,-0.170744 -0.13194,-0.287161 -0.12418,-0.116417 -0.30268,-0.116417 h -0.10866 v -0.07761 h 1.94804 q 0.72955,0 1.14865,0.333728 0.42686,0.333728 0.42686,0.877006 0,0.543277 -0.34149,0.90805 -0.34149,0.364772 -0.86925,0.4191 0.24836,0.108655 0.59761,0.605366 -0.008,0 0.26388,0.341489 0.2794,0.341489 0.44238,0.535517 0.17075,0.186267 0.2794,0.287161 0.28716,0.271639 0.6597,0.271639 v 0.07761 h -0.2406 q -0.61313,0 -0.96238,-0.240594 -0.26388,-0.178506 -0.48119,-0.442384 -0.0466,-0.06209 -0.39581,-0.543277 -0.34149,-0.48895 -0.36478,-0.519995 -0.4191,-0.519994 -0.78387,-0.519994 v -0.07761 q 0.90805,0 1.09432,-0.09313 0.25612,-0.131939 0.34925,-0.2794 0.19403,-0.310444 0.19403,-0.682978 0,-0.473427 -0.2794,-0.729544 -0.2794,-0.256117 -0.75283,-0.2794 -0.20955,-0.0078 -0.48119,-0.0078 z"
         style="font-style:normal;font-variant:normal;font-weight:normal;font-stretch:normal;font-size:7.76111126px;font-family:Cinzel;-inkscape-font-specification:Cinzel;stroke-width:0.26458332"
         id="path5691" />
      <path
         d="m -135.48093,93.685251 q -0.0233,-0.09313 -0.0233,-0.380294 0,-0.287161 0.10089,-0.582083 h 0.0931 q -0.008,0.06985 -0.008,0.1397 0,0.4191 0.27164,0.690739 0.2794,0.263877 0.76835,0.263877 0.51223,0 0.7994,-0.232833 0.28716,-0.240594 0.28716,-0.613128 0,-0.380294 -0.2794,-0.62865 l -1.55223,-1.195211 q -0.37253,-0.318206 -0.37253,-0.853722 0,-0.302684 0.16298,-0.5588 0.17075,-0.256117 0.46567,-0.403578 0.30268,-0.155222 0.70626,-0.155222 0.40358,0 0.71402,0.06985 h 0.25612 l 0.0155,0.845961 h -0.0854 q 0,-0.325967 -0.22507,-0.504472 -0.22507,-0.178506 -0.64417,-0.178506 -0.4191,0 -0.69074,0.217311 -0.27164,0.20955 -0.27164,0.551039 0,0.333728 0.30268,0.582083 l 1.56775,1.210734 q 0.35701,0.294922 0.35701,0.822678 0,0.527755 -0.40358,0.892527 -0.39582,0.364773 -0.97014,0.364773 -0.38029,0 -0.76059,-0.09313 -0.38029,-0.09313 -0.58208,-0.271639 z"
         style="font-style:normal;font-variant:normal;font-weight:normal;font-stretch:normal;font-size:7.76111126px;font-family:Cinzel;-inkscape-font-specification:Cinzel;stroke-width:0.26458332"
         id="path5693" />
      <path
         d="m -129.83169,93.863757 q 0.20179,0 0.34149,-0.1397 0.14746,-0.147461 0.15522,-0.34925 v -4.299656 q -0.008,-0.201789 -0.15522,-0.341489 -0.1397,-0.147461 -0.34149,-0.147461 h -0.1009 v -0.07761 h 1.69969 v 0.07761 h -0.1009 q -0.2794,0 -0.42686,0.240595 -0.0699,0.116416 -0.0699,0.248355 v 4.625623 h 1.10984 q 0.57432,0 0.877,-0.256117 0.30269,-0.256117 0.50448,-0.760589 h 0.0776 l -0.45015,1.2573 h -3.22086 v -0.07761 z"
         style="font-style:normal;font-variant:normal;font-weight:normal;font-stretch:normal;font-size:7.76111126px;font-family:Cinzel;-inkscape-font-specification:Cinzel;stroke-width:0.26458332"
         id="path5695" />
      <path
         d="m -124.30663,89.509774 v 3.942644 q 0.008,0.240595 0.23283,0.357011 0.1009,0.05433 0.22507,0.05433 h 0.0854 v 0.07761 h -1.59879 v -0.07761 h 0.0931 q 0.18627,0 0.31821,-0.124178 0.13193,-0.124178 0.1397,-0.294922 v -3.934883 h -1.40477 q -0.1785,0 -0.28716,0.116416 -0.10089,0.116417 -0.10089,0.2794 v 0.124178 h -0.0854 v -0.877006 q 0.15522,0.06209 0.43462,0.09313 0.28716,0.03104 0.42686,0.03104 h 2.53012 q 0.5588,0 0.86925,-0.124178 v 0.877006 h -0.0854 V 89.90559 q 0,-0.162983 -0.10865,-0.2794 -0.10866,-0.116416 -0.2794,-0.116416 z"
         style="font-style:normal;font-variant:normal;font-weight:normal;font-stretch:normal;font-size:7.76111126px;font-family:Cinzel;-inkscape-font-specification:Cinzel;stroke-width:0.26458332"
         id="path5697" />
      <path
         d="m -116.80843,91.613035 q 0,1.078794 -0.67521,1.707444 -0.66746,0.620889 -1.8161,0.620889 h -2.59222 v -0.07761 h 0.1009 q 0.18627,0 0.31044,-0.124178 0.12418,-0.124178 0.13194,-0.294922 v -3.663245 q -0.008,-0.186266 -0.1397,-0.302683 -0.12418,-0.116417 -0.31044,-0.116417 h -0.0931 v -0.07761 h 2.59222 q 0.76058,0 1.31938,0.2794 0.56657,0.2794 0.86925,0.807156 0.30268,0.527755 0.30268,1.241778 z m -4.03578,-2.0955 v 4.191 h 1.54447 q 0.89252,0 1.41252,-0.5588 0.51999,-0.566561 0.51999,-1.5367 0,-0.970139 -0.51999,-1.528939 -0.52,-0.566561 -1.41252,-0.566561 z"
         style="font-style:normal;font-variant:normal;font-weight:normal;font-stretch:normal;font-size:7.76111126px;font-family:Cinzel;-inkscape-font-specification:Cinzel;stroke-width:0.26458332"
         id="path5699" />
    </g>
    <g
       aria-label="FRIENDLY, RELIABLE AND EFFICIENT HOME IMPROVEMENT"
       style="font-style:normal;font-variant:normal;font-weight:normal;font-stretch:normal;font-size:4.93888855px;line-height:1.25;font-family:Armata;-inkscape-font-specification:Armata;text-align:center;letter-spacing:0px;word-spacing:0px;text-anchor:middle;fill:#828282;fill-opacity:1;stroke:none;stroke-width:0.26458332"
       id="text-h2">
      <path
         d="m -203.42746,100.68997 h 2.11977 v 0.35691 h -1.7098 v 1.44936 h 1.48311 v 0.3545 h -1.48311 v 1.52893 h -0.40997 z"
         style="text-align:center;text-anchor:middle;fill:#828282;fill-opacity:1;stroke-width:0.26458332"
         id="path5702" />
      <path
         d="m -200.55287,100.70203 q 0.78376,-0.0603 1.31672,-0.0603 h 0.0482 q 0.58118,0 0.81511,0.26045 0.19533,0.22428 0.19533,0.73312 0,0.65112 -0.18569,0.96945 -0.19051,0.32315 -0.63183,0.40514 0.082,0.10129 0.16158,0.21222 l 0.14228,0.20498 0.63424,0.95257 h -0.48231 l -0.55466,-0.87299 q -0.23151,-0.35209 -0.34244,-0.46543 h -0.0265 q -0.17122,-0.002 -0.33039,-0.007 l -0.34967,-0.0145 v 1.36012 h -0.40997 z m 0.40997,1.99195 q 0.25321,0.0121 0.79581,0.0121 0.44614,0 0.60772,-0.2508 0.13746,-0.21945 0.13746,-0.76688 0,-0.46061 -0.20499,-0.60289 -0.12057,-0.0844 -0.26527,-0.094 -0.14228,-0.01 -0.2508,-0.01 -0.10611,0 -0.2074,0.002 -0.0989,0 -0.19774,0.002 -0.0989,0.002 -0.20016,0.007 l -0.21463,0.0145 z"
         style="text-align:center;text-anchor:middle;fill:#828282;fill-opacity:1;stroke-width:0.26458332"
         id="path5704" />
      <path
         d="m -197.2032,100.68997 h 0.40755 v 3.6897 h -0.40755 z"
         style="text-align:center;text-anchor:middle;fill:#828282;fill-opacity:1;stroke-width:0.26458332"
         id="path5706" />
      <path
         d="m -195.60434,100.68997 h 2.09083 v 0.35691 h -1.68086 v 1.27331 h 1.3553 v 0.3545 h -1.3553 v 1.35048 h 1.74598 v 0.3545 h -2.15595 z"
         style="text-align:center;text-anchor:middle;fill:#828282;fill-opacity:1;stroke-width:0.26458332"
         id="path5708" />
      <path
         d="m -192.7201,100.68997 h 0.32556 l 1.69774,2.68166 0.21946,0.45579 -0.0531,-0.50643 v -2.63102 h 0.37379 v 3.6897 h -0.34485 l -1.68569,-2.67443 -0.21221,-0.41479 0.0531,0.49196 v 2.59726 h -0.37379 z"
         style="text-align:center;text-anchor:middle;fill:#828282;fill-opacity:1;stroke-width:0.26458332"
         id="path5710" />
      <path
         d="m -189.01594,100.71168 q 0,0 0.36174,-0.0265 0.5426,-0.0434 0.86575,-0.0434 0.32315,0 0.51608,0.0265 0.19292,0.0241 0.33762,0.0868 0.1471,0.0603 0.24839,0.1664 0.1037,0.10611 0.16881,0.2701 0.12299,0.30627 0.12299,0.91157 v 0.37379 q 0,0.71624 -0.10611,1.08762 -0.12299,0.42926 -0.44132,0.61736 -0.32797,0.19775 -0.96221,0.19775 h -1.11174 z m 2.04742,0.5643 q -0.0868,-0.13746 -0.2508,-0.20739 -0.16398,-0.0699 -0.50402,-0.0699 -0.34003,0 -0.88263,0.041 v 2.99517 h 0.76688 q 0.44855,0 0.66559,-0.14711 0.21222,-0.14228 0.28457,-0.48955 0.0627,-0.28456 0.0627,-0.92122 v -0.3762 q 0,-0.60048 -0.14229,-0.82476 z"
         style="text-align:center;text-anchor:middle;fill:#828282;fill-opacity:1;stroke-width:0.26458332"
         id="path5712" />
      <path
         d="m -185.31418,100.68997 h 0.40997 v 3.3352 h 1.46141 v 0.3545 h -1.87138 z"
         style="text-align:center;text-anchor:middle;fill:#828282;fill-opacity:1;stroke-width:0.26458332"
         id="path5714" />
      <path
         d="m -182.16708,103.01713 -1.20338,-2.32716 h 0.44855 l 0.78859,1.5844 0.17845,0.40756 0.17605,-0.41479 0.7717,-1.57717 h 0.45337 l -1.20337,2.32716 -0.002,1.36254 h -0.40514 z"
         style="text-align:center;text-anchor:middle;fill:#828282;fill-opacity:1;stroke-width:0.26458332"
         id="path5716" />
      <path
         d="m -180.02803,103.80089 q 0.0579,-0.005 0.10853,-0.005 h 0.0941 q 0.0723,0 0.11334,0.0217 0.0434,0.0193 0.0434,0.0627 0,0.0603 -0.0193,0.1447 l -0.31592,1.26125 h -0.31833 l 0.21704,-1.4807 z"
         style="text-align:center;text-anchor:middle;fill:#828282;fill-opacity:1;stroke-width:0.26458332"
         id="path5718" />
      <path
         d="m -177.479,100.70203 q 0.78376,-0.0603 1.31672,-0.0603 h 0.0482 q 0.58118,0 0.81511,0.26045 0.19533,0.22428 0.19533,0.73312 0,0.65112 -0.18569,0.96945 -0.19051,0.32315 -0.63183,0.40514 0.082,0.10129 0.16158,0.21222 l 0.14228,0.20498 0.63424,0.95257 h -0.48231 l -0.55466,-0.87299 q -0.23151,-0.35209 -0.34244,-0.46543 h -0.0265 q -0.17122,-0.002 -0.33039,-0.007 l -0.34967,-0.0145 v 1.36012 h -0.40997 z m 0.40997,1.99195 q 0.25321,0.0121 0.79581,0.0121 0.44614,0 0.60772,-0.2508 0.13746,-0.21945 0.13746,-0.76688 0,-0.46061 -0.20499,-0.60289 -0.12057,-0.0844 -0.26527,-0.094 -0.14228,-0.01 -0.2508,-0.01 -0.10611,0 -0.2074,0.002 -0.0989,0 -0.19774,0.002 -0.0989,0.002 -0.20016,0.007 l -0.21463,0.0145 z"
         style="text-align:center;text-anchor:middle;fill:#828282;fill-opacity:1;stroke-width:0.26458332"
         id="path5720" />
      <path
         d="m -174.17998,100.68997 h 2.09083 v 0.35691 h -1.68086 v 1.27331 h 1.3553 v 0.3545 h -1.3553 v 1.35048 h 1.74597 v 0.3545 h -2.15594 z"
         style="text-align:center;text-anchor:middle;fill:#828282;fill-opacity:1;stroke-width:0.26458332"
         id="path5722" />
      <path
         d="m -171.29815,100.68997 h 0.40996 v 3.3352 h 1.46141 v 0.3545 h -1.87137 z"
         style="text-align:center;text-anchor:middle;fill:#828282;fill-opacity:1;stroke-width:0.26458332"
         id="path5724" />
      <path
         d="m -168.76601,100.68997 h 0.40756 v 3.6897 h -0.40756 z"
         style="text-align:center;text-anchor:middle;fill:#828282;fill-opacity:1;stroke-width:0.26458332"
         id="path5726" />
      <path
         d="m -166.40991,100.68997 h 0.56189 l 1.29019,3.6897 h -0.43649 l -0.36656,-1.08279 h -1.48552 l -0.34727,1.08279 h -0.42444 z m 0.93328,2.26205 -0.65113,-1.93649 -0.0748,0.27492 -0.53295,1.66157 z"
         style="text-align:center;text-anchor:middle;fill:#828282;fill-opacity:1;stroke-width:0.26458332"
         id="path5728" />
      <path
         d="m -161.62536,101.63531 q 0,0.74276 -0.56189,0.81752 v 0.007 q 0.34726,0.0265 0.51848,0.19775 0.19775,0.20257 0.19775,0.58842 0,0.38344 -0.0892,0.59566 -0.0868,0.21222 -0.24357,0.33038 -0.26768,0.2074 -0.84163,0.2074 h -1.23231 v -3.67764 q 0.668,-0.0627 1.10208,-0.0627 0.43408,0 0.63666,0.0675 0.20257,0.0651 0.31591,0.19052 0.19775,0.21945 0.19775,0.73794 z m -1.29983,0.70176 q 0.48472,0 0.67282,-0.13746 0.21463,-0.15434 0.21463,-0.57395 v -0.0506 q 0,-0.32315 -0.14228,-0.46061 -0.14228,-0.13505 -0.48473,-0.13505 -0.28697,0 -0.48713,0.0121 l -0.31592,0.0193 v 1.32636 z m 0.33038,1.70016 q 0.3545,0 0.50643,-0.13505 0.19051,-0.17122 0.19051,-0.61254 0,-0.51125 -0.37379,-0.59807 -0.11334,-0.0265 -0.24598,-0.0265 h -0.95016 v 1.37218 z"
         style="text-align:center;text-anchor:middle;fill:#828282;fill-opacity:1;stroke-width:0.26458332"
         id="path5730" />
      <path
         d="m -160.5908,100.68997 h 0.40997 v 3.3352 h 1.46141 v 0.3545 h -1.87138 z"
         style="text-align:center;text-anchor:middle;fill:#828282;fill-opacity:1;stroke-width:0.26458332"
         id="path5732" />
      <path
         d="m -158.1093,100.68997 h 2.09083 v 0.35691 h -1.68086 v 1.27331 h 1.3553 v 0.3545 h -1.3553 v 1.35048 h 1.74597 v 0.3545 h -2.15594 z"
         style="text-align:center;text-anchor:middle;fill:#828282;fill-opacity:1;stroke-width:0.26458332"
         id="path5734" />
      <path
         d="m -153.23311,100.68997 h 0.56189 l 1.29019,3.6897 h -0.43649 l -0.36656,-1.08279 h -1.48552 l -0.34727,1.08279 h -0.42444 z m 0.93328,2.26205 -0.65113,-1.93649 -0.0748,0.27492 -0.53295,1.66157 z"
         style="text-align:center;text-anchor:middle;fill:#828282;fill-opacity:1;stroke-width:0.26458332"
         id="path5736" />
      <path
         d="m -150.70096,100.68997 h 0.32556 l 1.69774,2.68166 0.21945,0.45579 -0.053,-0.50643 v -2.63102 h 0.37379 v 3.6897 h -0.34485 l -1.68569,-2.67443 -0.21221,-0.41479 0.0531,0.49196 v 2.59726 h -0.37379 z"
         style="text-align:center;text-anchor:middle;fill:#828282;fill-opacity:1;stroke-width:0.26458332"
         id="path5738" />
      <path
         d="m -146.9968,100.71168 q 0,0 0.36174,-0.0265 0.5426,-0.0434 0.86575,-0.0434 0.32315,0 0.51608,0.0265 0.19292,0.0241 0.33762,0.0868 0.1471,0.0603 0.24839,0.1664 0.10369,0.10611 0.16881,0.2701 0.12299,0.30627 0.12299,0.91157 v 0.37379 q 0,0.71624 -0.10611,1.08762 -0.12299,0.42926 -0.44132,0.61736 -0.32797,0.19775 -0.96221,0.19775 h -1.11174 z m 2.04742,0.5643 q -0.0868,-0.13746 -0.2508,-0.20739 -0.16399,-0.0699 -0.50402,-0.0699 -0.34003,0 -0.88263,0.041 v 2.99517 h 0.76688 q 0.44855,0 0.66559,-0.14711 0.21222,-0.14228 0.28456,-0.48955 0.0627,-0.28456 0.0627,-0.92122 v -0.3762 q 0,-0.60048 -0.14229,-0.82476 z"
         style="text-align:center;text-anchor:middle;fill:#828282;fill-opacity:1;stroke-width:0.26458332"
         id="path5740" />
      <path
         d="m -142.05791,100.68997 h 2.09083 v 0.35691 h -1.68086 v 1.27331 h 1.3553 v 0.3545 h -1.3553 v 1.35048 h 1.74597 v 0.3545 h -2.15594 z"
         style="text-align:center;text-anchor:middle;fill:#828282;fill-opacity:1;stroke-width:0.26458332"
         id="path5742" />
      <path
         d="m -139.17367,100.68997 h 2.11976 v 0.35691 h -1.7098 v 1.44936 h 1.48312 v 0.3545 h -1.48312 v 1.52893 h -0.40996 z"
         style="text-align:center;text-anchor:middle;fill:#828282;fill-opacity:1;stroke-width:0.26458332"
         id="path5744" />
      <path
         d="m -136.29908,100.68997 h 2.11976 v 0.35691 h -1.7098 v 1.44936 h 1.48311 v 0.3545 h -1.48311 v 1.52893 h -0.40996 z"
         style="text-align:center;text-anchor:middle;fill:#828282;fill-opacity:1;stroke-width:0.26458332"
         id="path5746" />
      <path
         d="m -133.37385,100.68997 h 0.40755 v 3.6897 h -0.40755 z"
         style="text-align:center;text-anchor:middle;fill:#828282;fill-opacity:1;stroke-width:0.26458332"
         id="path5748" />
      <path
         d="m -130.4848,104.08063 q 0.39308,0 0.79099,-0.15192 l 0.10611,0.33279 q -0.18328,0.0916 -0.44132,0.12782 -0.25803,0.0386 -0.45578,0.0386 h -0.0338 q -0.85851,0 -1.15031,-0.49196 -0.17846,-0.29903 -0.21704,-0.80546 -0.0169,-0.24357 -0.0169,-0.53296 0,-0.28939 0.0145,-0.54984 0.0169,-0.26286 0.0651,-0.4799 0.0482,-0.21945 0.13987,-0.39067 0.0916,-0.17122 0.24598,-0.28939 0.3135,-0.24598 0.91157,-0.24598 0.38585,0 0.61977,0.0506 0.23634,0.0482 0.31833,0.0796 l -0.10852,0.38102 q -0.47026,-0.16398 -0.80546,-0.16398 -0.3328,0 -0.51367,0.082 -0.17845,0.0796 -0.27974,0.26527 -0.17604,0.31833 -0.17604,1.21302 v 0.17846 q 0,0.73552 0.19051,1.02732 0.21222,0.32556 0.77411,0.32556 z"
         style="text-align:center;text-anchor:middle;fill:#828282;fill-opacity:1;stroke-width:0.26458332"
         id="path5750" />
      <path
         d="m -128.84011,100.68997 h 0.40756 v 3.6897 h -0.40756 z"
         style="text-align:center;text-anchor:middle;fill:#828282;fill-opacity:1;stroke-width:0.26458332"
         id="path5752" />
      <path
         d="m -127.24125,100.68997 h 2.09083 v 0.35691 h -1.68086 v 1.27331 h 1.3553 v 0.3545 h -1.3553 v 1.35048 h 1.74597 v 0.3545 h -2.15594 z"
         style="text-align:center;text-anchor:middle;fill:#828282;fill-opacity:1;stroke-width:0.26458332"
         id="path5754" />
      <path
         d="m -124.35701,100.68997 h 0.32556 l 1.69775,2.68166 0.21945,0.45579 -0.053,-0.50643 v -2.63102 h 0.37379 v 3.6897 h -0.34486 l -1.68568,-2.67443 -0.21222,-0.41479 0.0531,0.49196 v 2.59726 h -0.3738 z"
         style="text-align:center;text-anchor:middle;fill:#828282;fill-opacity:1;stroke-width:0.26458332"
         id="path5756" />
      <path
         d="m -120.20912,101.04688 h -0.98392 v -0.35691 h 2.41157 v 0.35691 h -1.01768 v 3.33279 h -0.40997 z"
         style="text-align:center;text-anchor:middle;fill:#828282;fill-opacity:1;stroke-width:0.26458332"
         id="path5758" />
      <path
         d="m -187.58346,106.86358 h 0.40996 v 1.6664 h 1.74356 v -1.6664 h 0.40756 v 3.6897 h -0.40756 v -1.67363 h -1.74356 v 1.67363 h -0.40996 z"
         style="text-align:center;text-anchor:middle;fill:#828282;fill-opacity:1;stroke-width:0.26458332"
         id="path5760" />
      <path
         d="m -182.66628,110.60151 q -0.85852,0 -1.13344,-0.54019 -0.16157,-0.3135 -0.19051,-0.83681 -0.0121,-0.24598 -0.0121,-0.53537 0,-0.28939 0.0169,-0.54743 0.0169,-0.26045 0.0651,-0.47025 0.0506,-0.20981 0.13987,-0.36897 0.0916,-0.16158 0.23874,-0.2701 0.30386,-0.21704 0.8754,-0.21704 h 0.14952 q 0.89469,0 1.14549,0.48231 0.15675,0.30145 0.17605,0.83923 0.01,0.26286 0.01,0.55707 0,0.2918 -0.0145,0.54019 -0.0145,0.24598 -0.0603,0.45579 -0.0458,0.20981 -0.13504,0.37861 -0.0868,0.16881 -0.23634,0.28698 -0.30868,0.24598 -0.88504,0.24598 z m 0.14469,-0.34726 q 0.26528,0 0.43891,-0.0579 0.17604,-0.0579 0.27733,-0.20257 0.1881,-0.26769 0.1881,-1.02733 v -0.26045 q 0,-0.36415 -0.0193,-0.64871 -0.0193,-0.28457 -0.1037,-0.4799 -0.17363,-0.40515 -0.75241,-0.40515 h -0.20257 q -0.58842,0 -0.75241,0.37862 -0.10369,0.24116 -0.11334,0.56913 -0.01,0.32797 -0.01,0.58601 v 0.26045 q 0,0.71141 0.21222,1.00321 0.20498,0.28457 0.69212,0.28457 z"
         style="text-align:center;text-anchor:middle;fill:#828282;fill-opacity:1;stroke-width:0.26458332"
         id="path5762" />
      <path
         d="m -179.87127,106.86358 h 0.62942 l 0.83922,2.72507 0.14228,0.58843 0.13746,-0.59084 0.81029,-2.72266 h 0.60048 l 0.59566,3.6897 h -0.40997 l -0.44855,-2.78777 -0.0675,-0.65112 -0.1471,0.65594 -0.83199,2.78054 h -0.47508 l -0.86816,-2.79501 -0.17123,-0.64147 -0.082,0.6463 -0.40755,2.79259 h -0.41479 z"
         style="text-align:center;text-anchor:middle;fill:#828282;fill-opacity:1;stroke-width:0.26458332"
         id="path5764" />
      <path
         d="m -175.2266,106.86358 h 2.09083 v 0.35691 h -1.68086 v 1.27331 h 1.3553 v 0.3545 h -1.3553 v 1.35048 h 1.74597 v 0.3545 h -2.15594 z"
         style="text-align:center;text-anchor:middle;fill:#828282;fill-opacity:1;stroke-width:0.26458332"
         id="path5766" />
      <path
         d="m -171.057,106.86358 h 0.40756 v 3.6897 h -0.40756 z"
         style="text-align:center;text-anchor:middle;fill:#828282;fill-opacity:1;stroke-width:0.26458332"
         id="path5768" />
      <path
         d="m -169.15427,106.86358 h 0.62942 l 0.83922,2.72507 0.14229,0.58843 0.13745,-0.59084 0.81029,-2.72266 h 0.60048 l 0.59566,3.6897 h -0.40997 l -0.44855,-2.78777 -0.0675,-0.65112 -0.14711,0.65594 -0.83199,2.78054 h -0.47508 l -0.86816,-2.79501 -0.17122,-0.64147 -0.082,0.6463 -0.40755,2.79259 h -0.41479 z"
         style="text-align:center;text-anchor:middle;fill:#828282;fill-opacity:1;stroke-width:0.26458332"
         id="path5770" />
      <path
         d="m -163.06989,109.39573 q -0.0989,0.005 -0.34726,0.005 -0.24598,0 -0.68248,-0.0651 v 1.21784 h -0.40996 v -3.67523 q 0.70176,-0.0651 1.39629,-0.0651 0.5836,0 0.81752,0.26286 0.19775,0.22186 0.19775,0.73312 v 0.28456 q 0,0.3955 -0.0868,0.67524 -0.18569,0.5836 -0.88505,0.62701 z m -0.0265,-2.23552 q -0.66077,0 -1.00321,0.0265 v 1.80868 q 0.42203,0.0555 0.75,0.0555 0.33038,0 0.47267,-0.0458 0.14469,-0.0482 0.22427,-0.15916 0.13505,-0.1881 0.13505,-0.74758 v -0.29904 q 0,-0.34485 -0.13505,-0.49196 -0.13022,-0.1471 -0.44373,-0.1471 z"
         style="text-align:center;text-anchor:middle;fill:#828282;fill-opacity:1;stroke-width:0.26458332"
         id="path5772" />
      <path
         d="m -161.22022,106.87564 q 0.78376,-0.0603 1.31672,-0.0603 h 0.0482 q 0.58119,0 0.81511,0.26045 0.19534,0.22428 0.19534,0.73312 0,0.65112 -0.18569,0.96945 -0.19052,0.32315 -0.63184,0.40514 0.082,0.10129 0.16158,0.21222 l 0.14228,0.20498 0.63424,0.95257 h -0.48231 l -0.55466,-0.87299 q -0.23151,-0.35209 -0.34244,-0.46543 h -0.0265 q -0.17122,-0.002 -0.33038,-0.007 l -0.34968,-0.0145 v 1.36012 h -0.40997 z m 0.40997,1.99195 q 0.25321,0.0121 0.79582,0.0121 0.44614,0 0.60771,-0.2508 0.13746,-0.21945 0.13746,-0.76688 0,-0.46061 -0.20498,-0.60289 -0.12058,-0.0844 -0.26528,-0.094 -0.14228,-0.01 -0.2508,-0.01 -0.10611,0 -0.20739,0.002 -0.0989,0 -0.19775,0.002 -0.0989,0.002 -0.20016,0.007 l -0.21463,0.0145 z"
         style="text-align:center;text-anchor:middle;fill:#828282;fill-opacity:1;stroke-width:0.26458332"
         id="path5774" />
      <path
         d="m -156.70818,110.60151 q -0.85851,0 -1.13343,-0.54019 -0.16158,-0.3135 -0.19052,-0.83681 -0.0121,-0.24598 -0.0121,-0.53537 0,-0.28939 0.0169,-0.54743 0.0169,-0.26045 0.0651,-0.47025 0.0506,-0.20981 0.13987,-0.36897 0.0916,-0.16158 0.23874,-0.2701 0.30386,-0.21704 0.8754,-0.21704 h 0.14952 q 0.89469,0 1.14549,0.48231 0.15676,0.30145 0.17605,0.83923 0.01,0.26286 0.01,0.55707 0,0.2918 -0.0145,0.54019 -0.0145,0.24598 -0.0603,0.45579 -0.0458,0.20981 -0.13505,0.37861 -0.0868,0.16881 -0.23633,0.28698 -0.30868,0.24598 -0.88505,0.24598 z m 0.1447,-0.34726 q 0.26527,0 0.4389,-0.0579 0.17605,-0.0579 0.27733,-0.20257 0.18811,-0.26769 0.18811,-1.02733 v -0.26045 q 0,-0.36415 -0.0193,-0.64871 -0.0193,-0.28457 -0.10369,-0.4799 -0.17364,-0.40515 -0.75241,-0.40515 h -0.20258 q -0.58842,0 -0.7524,0.37862 -0.1037,0.24116 -0.11335,0.56913 -0.01,0.32797 -0.01,0.58601 v 0.26045 q 0,0.71141 0.21221,1.00321 0.20499,0.28457 0.69212,0.28457 z"
         style="text-align:center;text-anchor:middle;fill:#828282;fill-opacity:1;stroke-width:0.26458332"
         id="path5776" />
      <path
         d="m -154.62699,106.86358 h 0.44372 l 0.93087,2.80948 0.1254,0.49437 0.13746,-0.49437 0.90916,-2.80948 h 0.43891 l -1.24196,3.69211 h -0.47508 z"
         style="text-align:center;text-anchor:middle;fill:#828282;fill-opacity:1;stroke-width:0.26458332"
         id="path5778" />
      <path
         d="m -150.91801,106.86358 h 2.09083 v 0.35691 h -1.68086 v 1.27331 h 1.3553 v 0.3545 h -1.3553 v 1.35048 h 1.74598 v 0.3545 h -2.15595 z"
         style="text-align:center;text-anchor:middle;fill:#828282;fill-opacity:1;stroke-width:0.26458332"
         id="path5780" />
      <path
         d="m -147.72991,106.86358 h 0.62942 l 0.83922,2.72507 0.14228,0.58843 0.13746,-0.59084 0.81029,-2.72266 h 0.60048 l 0.59566,3.6897 h -0.40997 l -0.44855,-2.78777 -0.0675,-0.65112 -0.14711,0.65594 -0.83199,2.78054 h -0.47508 l -0.86816,-2.79501 -0.17122,-0.64147 -0.082,0.6463 -0.40755,2.79259 h -0.41479 z"
         style="text-align:center;text-anchor:middle;fill:#828282;fill-opacity:1;stroke-width:0.26458332"
         id="path5782" />
      <path
         d="m -143.08523,106.86358 h 2.09082 v 0.35691 h -1.68086 v 1.27331 h 1.3553 v 0.3545 h -1.3553 v 1.35048 h 1.74598 v 0.3545 h -2.15594 z"
         style="text-align:center;text-anchor:middle;fill:#828282;fill-opacity:1;stroke-width:0.26458332"
         id="path5784" />
      <path
         d="m -140.201,106.86358 h 0.32556 l 1.69774,2.68167 0.21945,0.45578 -0.0531,-0.50643 v -2.63102 h 0.37379 v 3.6897 h -0.34485 l -1.68569,-2.67443 -0.21221,-0.41479 0.053,0.49196 v 2.59726 h -0.37379 z"
         style="text-align:center;text-anchor:middle;fill:#828282;fill-opacity:1;stroke-width:0.26458332"
         id="path5786" />
      <path
         d="m -136.05311,107.22049 h -0.98392 v -0.35691 h 2.41157 v 0.35691 h -1.01768 v 3.33279 h -0.40997 z"
         style="text-align:center;text-anchor:middle;fill:#828282;fill-opacity:1;stroke-width:0.26458332"
         id="path5788" />
    </g>
  </g>
</svg>
